<?xml version="1.0" standalone="no"?><!DOCTYPE svg PUBLIC "-//W3C//DTD SVG 1.1//EN" "http://www.w3.org/Graphics/SVG/1.1/DTD/svg11.dtd"><svg t="1563357010958" class="icon" viewBox="0 0 1024 1024" version="1.1" xmlns="http://www.w3.org/2000/svg" p-id="1744" xmlns:xlink="http://www.w3.org/1999/xlink" width="200" height="200"><defs><style type="text/css"></style></defs><path d="M995.84 1024 28.16 1024C12.8 1024 0 1011.2 0 995.84l0 0c0-15.36 12.8-28.16 28.16-28.16l967.68 0c15.36 0 28.16 12.8 28.16 28.16l0 0C1024 1011.2 1011.2 1024 995.84 1024z" p-id="1745" fill="#515151"></path><path d="M926.72 376.32 926.72 376.32c-10.24-10.24-30.72-10.24-40.96 0L537.6 721.92 537.6 28.16C537.6 12.8 527.36 0 512 0s-25.6 12.8-25.6 28.16l0 693.76L138.24 376.32c-10.24-10.24-30.72-10.24-40.96 0-10.24 10.24-10.24 28.16 0 40.96l394.24 394.24c2.56 2.56 2.56 2.56 5.12 2.56 0 0 2.56 2.56 2.56 2.56 7.68 2.56 15.36 2.56 23.04 0 2.56 0 2.56-2.56 2.56-2.56 2.56 0 5.12-2.56 5.12-2.56l394.24-394.24C936.96 404.48 936.96 386.56 926.72 376.32z" p-id="1746" fill="#515151"></path></svg>