<?xml version="1.0" standalone="no"?><!DOCTYPE svg PUBLIC "-//W3C//DTD SVG 1.1//EN" "http://www.w3.org/Graphics/SVG/1.1/DTD/svg11.dtd"><svg t="1565864497985" class="icon" viewBox="0 0 1024 1024" version="1.1" xmlns="http://www.w3.org/2000/svg" p-id="2007" xmlns:xlink="http://www.w3.org/1999/xlink" width="200" height="200"><defs><style type="text/css"></style></defs><path d="M859.2 575.296c44.416-44.416 71.936-105.792 71.936-173.632 0-135.616-109.952-245.504-245.504-245.504C617.792 156.16 556.352 183.68 512 228.096 467.584 183.68 406.208 156.16 338.368 156.16c-135.552 0-245.504 109.888-245.504 245.504 0 67.84 27.456 129.216 71.936 173.632L164.672 575.424l261.952 262.016 0.064-0.064c22.144 21.504 52.16 34.688 85.44 34.688 36.8 0 69.824-16.192 92.288-41.856L859.2 575.296 859.2 575.296z" p-id="2008"></path></svg>