<?xml version="1.0" standalone="no"?><!DOCTYPE svg PUBLIC "-//W3C//DTD SVG 1.1//EN" "http://www.w3.org/Graphics/SVG/1.1/DTD/svg11.dtd"><svg t="1563792632889" class="icon" viewBox="0 0 1024 1024" version="1.1" xmlns="http://www.w3.org/2000/svg" p-id="2231" xmlns:xlink="http://www.w3.org/1999/xlink" width="200" height="200"><defs><style type="text/css"></style></defs><path d="M599.990857 455.424v104.009143c0 20.553143 3.986286 39.424-21.723428 38.838857v-176.566857c25.161143 0 21.723429 13.129143 21.723428 33.718857z m180.589714 54.857143v69.156571c0 11.446857 3.437714 30.281143-13.129142 30.281143a8.630857 8.630857 0 0 1-8.009143-5.156571c-4.571429-10.861714-2.304-93.147429-2.304-94.281143 0-8.009143-2.304-26.843429 10.276571-26.843429 15.433143 0 13.129143 15.433143 13.129143 26.843429zM175.981714 645.156571h69.705143v-269.714285H175.981714v269.714285z m248.027429 0h60.562286v-269.714285H393.728l-16.018286 126.281143a4520.411429 4520.411429 0 0 0-18.285714-126.281143H269.129143v269.714285h61.147428v-178.285714l25.709715 178.285714h43.446857l24.576-182.272v182.272z m242.834286-174.299428c0-17.152 0.585143-35.437714-2.852572-51.419429-9.142857-47.433143-66.304-43.995429-103.424-43.995428h-52.004571v269.714285c181.723429 0 158.281143 12.580571 158.281143-174.299428z m181.138285 112.566857v-75.995429c0-36.571429-1.718857-63.414857-46.848-63.414857-18.870857 0-31.414857 5.705143-43.995428 19.419429v-87.990857h-66.852572v269.714285h62.866286l3.986286-17.152c11.995429 14.299429 25.161143 20.553143 43.995428 20.553143 41.728 0 46.848-32 46.848-65.133714zM950.857143 164.571429v694.857142c0 50.285714-41.142857 91.428571-91.428572 91.428572h-694.857142A91.684571 91.684571 0 0 1 73.142857 859.428571v-694.857142C73.142857 114.285714 114.285714 73.142857 164.571429 73.142857h694.857142C909.714286 73.142857 950.857143 114.285714 950.857143 164.571429z" fill="" p-id="2232"></path></svg>