<?xml version="1.0" standalone="no"?><!DOCTYPE svg PUBLIC "-//W3C//DTD SVG 1.1//EN" "http://www.w3.org/Graphics/SVG/1.1/DTD/svg11.dtd"><svg t="1565862416746" class="icon" viewBox="0 0 1024 1024" version="1.1" xmlns="http://www.w3.org/2000/svg" p-id="7801" xmlns:xlink="http://www.w3.org/1999/xlink" width="200" height="200"><defs><style type="text/css"></style></defs><path d="M289.685 639.356l92.162 91.72c-90.681 76.432-223.31 195.273-250.576 216.6C61.564 1002.042 0 1019.548 0 1019.548s17.52-61.393 72.175-130.676c21.467-27.245 140.77-159.153 217.51-249.516zM1004.4 265.08L757.77 19.509c-26.155-26.012-68.473-26.012-94.505 0-26.156 26.012-26.156 68.173 0 94.062l19.617 19.601L322.627 386.51l-79.7-79.268c-26.157-26.012-68.474-26.012-94.506 0-26.156 26.012-26.156 68.173 0 94.062l472.527 470.432c26.156 26.012 68.473 26.012 94.506 0 26.155-26.012 26.155-68.173 0-94.185l-79.7-79.268 254.4-358.742 19.616 19.601c26.155 26.012 68.473 26.012 94.505 0 26.28-26.135 26.28-68.173 0.124-94.061z" p-id="7802"></path></svg>